<svg width="13" height="19" viewBox="0 0 13 19" fill="none" xmlns="http://www.w3.org/2000/svg">
<g clip-path="url(#clip0_439_662)">
<path d="M7.92579 7.54618C9.04384 6.42813 10.8566 6.42813 11.9746 7.54618C13.0927 8.66423 13.0927 10.4769 11.9746 11.595L6.21744 17.3522C5.09939 18.4702 3.28667 18.4702 2.16861 17.3522C1.05056 16.2341 1.05056 14.4214 2.16862 13.3033L7.92579 7.54618Z" fill="#FF9C27"/>
<path d="M1.02409 5.07327C-0.0939677 3.95522 -0.0939666 2.1425 1.02409 1.02445C2.14214 -0.0935999 3.95486 -0.0935989 5.07291 1.02445L9.59754 5.54908C10.7156 6.66713 10.7156 8.47985 9.59753 9.5979C8.47948 10.716 6.66676 10.716 5.54871 9.5979L1.02409 5.07327Z" fill="#FF6B00"/>
</g>
<defs>
<clipPath id="clip0_439_662">
<rect width="13" height="19" fill="white"/>
</clipPath>
</defs>
</svg>
