<svg width="19" height="14" viewBox="0 0 19 14" fill="none" xmlns="http://www.w3.org/2000/svg">
<path d="M11.1417 8.61485C12.2597 9.7329 12.2597 11.5456 11.1417 12.6637C10.0236 13.7817 8.21092 13.7817 7.09287 12.6637L1.3357 6.9065C0.217649 5.78845 0.217649 3.97573 1.3357 2.85768C2.45375 1.73963 4.26647 1.73963 5.38453 2.85768L11.1417 8.61485Z" fill="#298094"/>
<path d="M13.6146 1.71305C14.7326 0.594998 16.5454 0.594999 17.6634 1.71305C18.7815 2.8311 18.7815 4.64382 17.6634 5.76187L13.1388 10.2865C12.0207 11.4046 10.208 11.4046 9.08997 10.2865C7.97191 9.16845 7.97191 7.35573 9.08997 6.23768L13.6146 1.71305Z" fill="#00556F"/>
</svg>
