<svg width="26" height="26" viewBox="0 0 26 26" fill="none" xmlns="http://www.w3.org/2000/svg">
<path d="M14.9856 4.57522C14.0506 3.6316 12.7616 3.05 11.338 3.05C9.9144 3.05 8.62542 3.63161 7.69036 4.57522C6.75528 5.51893 6.17695 6.82206 6.17695 8.26347C6.17695 9.70481 6.75528 11.008 7.69036 11.9516L7.69036 11.9516C8.62542 12.8953 9.9144 13.4769 11.338 13.4769C12.7616 13.4769 14.0506 12.8953 14.9856 11.9516C15.9207 11.008 16.4991 9.7048 16.4991 8.26347C16.4991 6.82206 15.9207 5.51893 14.9856 4.57522ZM14.9856 4.57522L15.3763 4.18809L14.9856 4.57522Z" stroke="#FF6B00" stroke-width="1.1"/>
<path d="M19 8.64965L22 2L25 8.64965M19 8.64965C19 8.64965 19 18.2787 19 21.2719M19 8.64965H25M19 21.2719C19 25.576 25 25.576 25 21.2719M19 21.2719H25M25 21.2719C25 17.6733 25 8.64965 25 8.64965" stroke="#FF6B00" stroke-width="1.1"/>
<path d="M22 24.5L6.08665 24.4995H4.29804H1.90304V24.4981C1.89886 24.4981 1.73295 24.4981 1.72871 24.4979C1.50684 24.491 1.49439 24.3037 1.50134 24.0798C1.50963 23.8257 1.51559 23.5748 1.52169 23.3168C1.55484 21.9195 1.43088 20.3264 1.78166 19.0968C2.09128 18.0116 2.48855 17.1509 3.52888 16.3831C4.52088 15.6509 5.95536 15.01 8.05051 14.3363C8.17181 14.2898 8.31315 14.3033 8.42686 14.3849C8.84025 14.6815 9.29922 14.9154 9.79005 15.0732C10.2626 15.2251 10.7697 15.3071 11.2997 15.3071C11.83 15.3071 12.3375 15.2249 12.8105 15.0728C13.3016 14.9147 13.7609 14.6803 14.1746 14.3833C14.2698 14.315 14.3936 14.2891 14.5149 14.3229C16.8237 14.9732 18.0003 15.6613 19 16.5" stroke="#FF6B00" stroke-width="1.1"/>
</svg>
