<svg width="13" height="19" viewBox="0 0 13 19" fill="none" xmlns="http://www.w3.org/2000/svg">
<path d="M7.92589 7.54617C9.04394 6.42812 10.8567 6.42812 11.9747 7.54617C13.0928 8.66422 13.0928 10.4769 11.9747 11.595L6.21754 17.3522C5.09949 18.4702 3.28677 18.4702 2.16871 17.3522C1.05066 16.2341 1.05066 14.4214 2.16872 13.3033L7.92589 7.54617Z" fill="#298094"/>
<path d="M1.02409 5.07327C-0.0939665 3.95522 -0.0939655 2.1425 1.02409 1.02445C2.14214 -0.0936003 3.95486 -0.0935994 5.07291 1.02445L9.59754 5.54908C10.7156 6.66713 10.7156 8.47985 9.59753 9.5979C8.47948 10.716 6.66676 10.716 5.54871 9.5979L1.02409 5.07327Z" fill="#00556F"/>
</svg>
