<svg width="19" height="19" viewBox="0 0 19 19" fill="none" xmlns="http://www.w3.org/2000/svg">
<path d="M0 1.66249C0 0.92614 0.582761 0.331238 1.30408 0.331238C10.669 0.331238 18.2571 8.07745 18.2571 17.6375C18.2571 18.3738 17.6744 18.9687 16.9531 18.9687C16.2317 18.9687 15.649 18.3738 15.649 17.6375C15.649 9.55014 9.22638 2.99374 1.30408 2.99374C0.582761 2.99374 0 2.39884 0 1.66249ZM0 16.3062C0 15.6001 0.274788 14.9229 0.763913 14.4236C1.25304 13.9243 1.91644 13.6437 2.60816 13.6437C3.29989 13.6437 3.96329 13.9243 4.45241 14.4236C4.94154 14.9229 5.21633 15.6001 5.21633 16.3062C5.21633 17.0124 4.94154 17.6896 4.45241 18.1889C3.96329 18.6882 3.29989 18.9687 2.60816 18.9687C1.91644 18.9687 1.25304 18.6882 0.763913 18.1889C0.274788 17.6896 0 17.0124 0 16.3062ZM1.30408 5.65624C7.78781 5.65624 13.0408 11.0187 13.0408 17.6375C13.0408 18.3738 12.4581 18.9687 11.7367 18.9687C11.0154 18.9687 10.4327 18.3738 10.4327 17.6375C10.4327 12.4914 6.34517 8.31874 1.30408 8.31874C0.582761 8.31874 0 7.72384 0 6.98749C0 6.25114 0.582761 5.65624 1.30408 5.65624Z" fill="#F9F9F9"/>
</svg>
