<svg width="23" height="19" viewBox="0 0 23 19" fill="none" xmlns="http://www.w3.org/2000/svg">
<path d="M20.6371 4.81465C20.6506 5.0168 20.6506 5.22344 20.6506 5.42559C20.6506 11.6562 15.9068 18.8393 7.23691 18.8393C4.56406 18.8393 2.08438 18.0666 0 16.7234C0.377344 16.7684 0.745703 16.7818 1.13652 16.7818C3.34219 16.7818 5.36816 16.0361 6.98984 14.7693C4.91895 14.7244 3.18047 13.3678 2.58301 11.499C2.875 11.5439 3.16699 11.5709 3.47246 11.5709C3.89473 11.5709 4.31699 11.5125 4.7123 11.4092C2.55156 10.9734 0.934375 9.07324 0.934375 6.78223V6.72383C1.56328 7.07422 2.29102 7.29434 3.06367 7.32129C1.79238 6.47676 0.961328 5.03027 0.961328 3.39512C0.961328 2.51914 1.19492 1.71504 1.60371 1.01426C3.92617 3.87578 7.41211 5.74453 11.3248 5.94668C11.2529 5.59629 11.208 5.23242 11.208 4.86855C11.208 2.27207 13.3104 0.15625 15.9203 0.15625C17.277 0.15625 18.5033 0.726758 19.3658 1.64316C20.4305 1.44102 21.4547 1.0457 22.3576 0.506641C22.0072 1.60273 21.2615 2.51914 20.2867 3.10312C21.2346 2.9998 22.1555 2.73926 23 2.37539C22.3576 3.30977 21.5535 4.14082 20.6371 4.81465Z" fill="#F9F9F9"/>
</svg>
